<svg xmlns="http://www.w3.org/2000/svg" xmlns:xlink="http://www.w3.org/1999/xlink" width="500" zoomAndPan="magnify" viewBox="0 0 375 374.999991" height="500" preserveAspectRatio="xMidYMid meet" version="1.0"><defs><g/><clipPath id="4507ef268b"><path d="M 22 137 L 30 137 L 30 146 L 22 146 Z M 22 137 " clip-rule="nonzero"/></clipPath><clipPath id="90c6686d5c"><path d="M 14.835938 124.515625 L 257.527344 26.457031 L 353.054688 262.890625 L 110.367188 360.945312 Z M 14.835938 124.515625 " clip-rule="nonzero"/></clipPath><clipPath id="695d647c34"><path d="M 257.320312 26.542969 L 14.628906 124.601562 L 110.160156 361.03125 L 352.847656 262.972656 Z M 257.320312 26.542969 " clip-rule="nonzero"/></clipPath><clipPath id="129a4ec8dd"><path d="M 33 83 L 324 83 L 324 238 L 33 238 Z M 33 83 " clip-rule="nonzero"/></clipPath><clipPath id="41710de28c"><path d="M 14.835938 124.515625 L 257.527344 26.457031 L 353.054688 262.890625 L 110.367188 360.945312 Z M 14.835938 124.515625 " clip-rule="nonzero"/></clipPath><clipPath id="fc60be272c"><path d="M 257.320312 26.542969 L 14.628906 124.601562 L 110.160156 361.03125 L 352.847656 262.972656 Z M 257.320312 26.542969 " clip-rule="nonzero"/></clipPath><clipPath id="a4649b384f"><path d="M 325 242 L 332 242 L 332 252 L 325 252 Z M 325 242 " clip-rule="nonzero"/></clipPath><clipPath id="3c56e86f19"><path d="M 14.835938 124.515625 L 257.527344 26.457031 L 353.054688 262.890625 L 110.367188 360.945312 Z M 14.835938 124.515625 " clip-rule="nonzero"/></clipPath><clipPath id="e4e1344880"><path d="M 257.320312 26.542969 L 14.628906 124.601562 L 110.160156 361.03125 L 352.847656 262.972656 Z M 257.320312 26.542969 " clip-rule="nonzero"/></clipPath><clipPath id="6773c034f6"><path d="M 310 234 L 342 234 L 342 269 L 310 269 Z M 310 234 " clip-rule="nonzero"/></clipPath><clipPath id="1f86067513"><path d="M 14.835938 124.515625 L 257.527344 26.457031 L 353.054688 262.890625 L 110.367188 360.945312 Z M 14.835938 124.515625 " clip-rule="nonzero"/></clipPath><clipPath id="aab52fd541"><path d="M 257.320312 26.542969 L 14.628906 124.601562 L 110.160156 361.03125 L 352.847656 262.972656 Z M 257.320312 26.542969 " clip-rule="nonzero"/></clipPath></defs><rect x="-37.5" width="450" fill="#ffffff" y="-37.499999" height="449.999989" fill-opacity="1"/><rect x="-37.5" width="450" fill="#0a0a0a" y="-37.499999" height="449.999989" fill-opacity="1"/><g clip-path="url(#4507ef268b)"><g clip-path="url(#90c6686d5c)"><g clip-path="url(#695d647c34)"><path fill="#d8d8d8" d="M 25.140625 144.882812 C 25.429688 144.765625 25.671875 144.585938 25.867188 144.335938 C 26.941406 142.972656 28.054688 141.609375 29.183594 140.28125 C 29.332031 140.101562 29.4375 139.902344 29.503906 139.679688 C 29.570312 139.460938 29.59375 139.234375 29.570312 139.003906 C 29.550781 138.777344 29.484375 138.558594 29.378906 138.355469 C 29.273438 138.148438 29.132812 137.972656 28.957031 137.824219 C 28.78125 137.671875 28.582031 137.5625 28.363281 137.492188 C 28.144531 137.417969 27.921875 137.390625 27.691406 137.40625 C 27.460938 137.421875 27.242188 137.480469 27.035156 137.582031 C 26.828125 137.679688 26.648438 137.816406 26.492188 137.988281 C 25.335938 139.351562 24.179688 140.753906 23.089844 142.148438 C 22.84375 142.464844 22.714844 142.820312 22.710938 143.222656 C 22.707031 143.625 22.824219 143.984375 23.066406 144.304688 C 23.308594 144.625 23.621094 144.839844 24.007812 144.945312 C 24.394531 145.054688 24.773438 145.03125 25.144531 144.882812 Z M 25.140625 144.882812 " fill-opacity="1" fill-rule="nonzero"/></g></g></g><g clip-path="url(#129a4ec8dd)"><g clip-path="url(#41710de28c)"><g clip-path="url(#fc60be272c)"><path fill="#d8d8d8" d="M 322.644531 237.214844 C 322.738281 237.179688 322.828125 237.132812 322.917969 237.078125 C 323.113281 236.957031 323.28125 236.796875 323.417969 236.609375 C 323.554688 236.417969 323.648438 236.207031 323.699219 235.980469 C 323.753906 235.753906 323.761719 235.523438 323.722656 235.292969 C 323.683594 235.0625 323.601562 234.847656 323.480469 234.648438 C 321.597656 231.621094 319.621094 228.597656 317.601562 225.652344 C 317.46875 225.460938 317.304688 225.300781 317.105469 225.171875 C 316.910156 225.046875 316.695312 224.960938 316.464844 224.917969 C 316.234375 224.875 316.003906 224.878906 315.777344 224.925781 C 315.546875 224.976562 315.335938 225.066406 315.140625 225.199219 C 314.949219 225.332031 314.789062 225.496094 314.660156 225.695312 C 314.53125 225.890625 314.449219 226.105469 314.40625 226.335938 C 314.363281 226.566406 314.367188 226.796875 314.414062 227.023438 C 314.460938 227.253906 314.554688 227.464844 314.6875 227.660156 C 316.679688 230.554688 318.625 233.53125 320.476562 236.511719 C 320.585938 236.691406 320.722656 236.84375 320.886719 236.972656 C 321.050781 237.101562 321.234375 237.195312 321.429688 237.261719 C 321.628906 237.324219 321.832031 237.355469 322.042969 237.347656 C 322.25 237.339844 322.449219 237.296875 322.644531 237.214844 Z M 310.585938 219.648438 C 310.84375 219.542969 311.0625 219.390625 311.246094 219.183594 C 311.429688 218.980469 311.558594 218.742188 311.628906 218.476562 C 311.703125 218.210938 311.714844 217.945312 311.664062 217.675781 C 311.609375 217.402344 311.5 217.160156 311.335938 216.9375 C 309.179688 214.097656 306.929688 211.269531 304.648438 208.53125 C 304.496094 208.347656 304.320312 208.203125 304.109375 208.09375 C 303.902344 207.980469 303.679688 207.914062 303.445312 207.894531 C 303.210938 207.871094 302.980469 207.894531 302.757812 207.964844 C 302.53125 208.035156 302.328125 208.144531 302.148438 208.296875 C 301.96875 208.445312 301.820312 208.625 301.710938 208.835938 C 301.605469 209.042969 301.539062 209.265625 301.519531 209.5 C 301.5 209.734375 301.523438 209.964844 301.59375 210.191406 C 301.667969 210.414062 301.777344 210.617188 301.929688 210.796875 C 304.167969 213.496094 306.394531 216.277344 308.519531 219.078125 C 308.753906 219.390625 309.0625 219.601562 309.441406 219.707031 C 309.820312 219.816406 310.191406 219.800781 310.558594 219.660156 Z M 296.933594 203.28125 C 297.132812 203.199219 297.308594 203.089844 297.464844 202.945312 C 297.636719 202.785156 297.773438 202.601562 297.871094 202.386719 C 297.972656 202.175781 298.027344 201.953125 298.035156 201.71875 C 298.046875 201.484375 298.011719 201.257812 297.929688 201.035156 C 297.851562 200.816406 297.730469 200.621094 297.574219 200.449219 C 295.160156 197.816406 292.65625 195.207031 290.132812 192.699219 C 289.96875 192.535156 289.777344 192.40625 289.558594 192.316406 C 289.34375 192.230469 289.117188 192.183594 288.882812 192.183594 C 288.648438 192.1875 288.421875 192.230469 288.207031 192.320312 C 287.992188 192.414062 287.800781 192.539062 287.632812 192.707031 C 287.46875 192.871094 287.339844 193.0625 287.253906 193.28125 C 287.164062 193.496094 287.117188 193.722656 287.117188 193.957031 C 287.121094 194.191406 287.164062 194.417969 287.253906 194.632812 C 287.34375 194.847656 287.472656 195.039062 287.636719 195.207031 C 290.125 197.675781 292.589844 200.242188 294.964844 202.835938 C 295.214844 203.105469 295.515625 203.28125 295.871094 203.363281 C 296.226562 203.445312 296.578125 203.421875 296.917969 203.285156 Z M 239.109375 211.789062 C 239.332031 211.714844 239.535156 211.601562 239.710938 211.449219 C 239.890625 211.292969 240.03125 211.113281 240.136719 210.902344 C 240.242188 210.691406 240.304688 210.46875 240.320312 210.234375 C 240.335938 210 240.308594 209.773438 240.234375 209.550781 C 240.160156 209.328125 240.046875 209.125 239.894531 208.949219 C 239.738281 208.769531 239.558594 208.628906 239.347656 208.523438 C 239.136719 208.417969 238.917969 208.355469 238.683594 208.339844 C 238.449219 208.324219 238.21875 208.351562 237.996094 208.425781 C 234.703125 209.292969 231.359375 209.664062 227.957031 209.535156 C 227.722656 209.523438 227.496094 209.558594 227.273438 209.640625 C 227.054688 209.722656 226.859375 209.839844 226.683594 210 C 226.511719 210.160156 226.375 210.34375 226.277344 210.558594 C 226.179688 210.769531 226.125 210.992188 226.117188 211.226562 C 226.105469 211.460938 226.140625 211.6875 226.222656 211.910156 C 226.300781 212.128906 226.421875 212.324219 226.582031 212.5 C 226.738281 212.671875 226.925781 212.808594 227.136719 212.90625 C 227.351562 213.003906 227.574219 213.058594 227.808594 213.066406 C 231.5625 213.210938 235.253906 212.804688 238.882812 211.851562 C 238.976562 211.835938 239.050781 211.8125 239.109375 211.789062 Z M 248.945312 207.765625 C 249.023438 207.742188 249.097656 207.710938 249.167969 207.675781 C 252.410156 205.816406 255.347656 203.5625 257.976562 200.90625 C 258.140625 200.738281 258.269531 200.546875 258.355469 200.328125 C 258.445312 200.109375 258.488281 199.882812 258.484375 199.648438 C 258.480469 199.414062 258.433594 199.1875 258.34375 198.972656 C 258.25 198.757812 258.121094 198.566406 257.953125 198.402344 C 257.785156 198.238281 257.59375 198.109375 257.375 198.023438 C 257.15625 197.933594 256.933594 197.894531 256.695312 197.894531 C 256.460938 197.898438 256.238281 197.945312 256.019531 198.035156 C 255.804688 198.128906 255.613281 198.257812 255.449219 198.425781 C 253.042969 200.847656 250.359375 202.90625 247.390625 204.597656 C 247.199219 204.710938 247.03125 204.855469 246.894531 205.027344 C 246.753906 205.203125 246.652344 205.398438 246.585938 205.613281 C 246.523438 205.824219 246.5 206.042969 246.515625 206.265625 C 246.53125 206.488281 246.589844 206.699219 246.6875 206.902344 C 246.785156 207.101562 246.917969 207.277344 247.082031 207.429688 C 247.246094 207.582031 247.429688 207.695312 247.640625 207.777344 C 247.847656 207.859375 248.0625 207.898438 248.285156 207.894531 C 248.511719 207.894531 248.726562 207.855469 248.933594 207.769531 Z M 281.796875 188.265625 C 281.9375 188.207031 282.066406 188.136719 282.1875 188.046875 C 282.304688 187.957031 282.414062 187.855469 282.507812 187.738281 C 282.601562 187.621094 282.679688 187.496094 282.742188 187.359375 C 282.804688 187.222656 282.847656 187.082031 282.875 186.933594 C 282.898438 186.785156 282.90625 186.636719 282.894531 186.488281 C 282.882812 186.339844 282.851562 186.195312 282.804688 186.054688 C 282.757812 185.910156 282.691406 185.777344 282.609375 185.652344 C 282.527344 185.527344 282.429688 185.414062 282.320312 185.316406 C 279.671875 182.921875 276.933594 180.5625 274.183594 178.304688 C 274.003906 178.15625 273.800781 178.046875 273.574219 177.976562 C 273.351562 177.910156 273.121094 177.886719 272.890625 177.910156 C 272.65625 177.933594 272.433594 178 272.226562 178.109375 C 272.019531 178.21875 271.84375 178.367188 271.695312 178.546875 C 271.542969 178.730469 271.4375 178.933594 271.367188 179.15625 C 271.300781 179.382812 271.277344 179.609375 271.300781 179.84375 C 271.324219 180.078125 271.390625 180.296875 271.5 180.503906 C 271.613281 180.710938 271.757812 180.890625 271.941406 181.039062 C 274.648438 183.261719 277.34375 185.585938 279.953125 187.941406 C 280.203125 188.167969 280.496094 188.308594 280.828125 188.367188 C 281.160156 188.425781 281.484375 188.390625 281.796875 188.265625 Z M 263.699219 192.742188 C 264.089844 192.582031 264.386719 192.316406 264.589844 191.945312 C 266.347656 188.675781 267.691406 185.242188 268.613281 181.644531 C 268.695312 181.410156 268.726562 181.167969 268.707031 180.921875 C 268.6875 180.675781 268.621094 180.445312 268.503906 180.226562 C 268.390625 180.007812 268.234375 179.820312 268.039062 179.667969 C 267.847656 179.515625 267.628906 179.40625 267.390625 179.34375 C 267.148438 179.28125 266.910156 179.269531 266.664062 179.308594 C 266.417969 179.347656 266.195312 179.433594 265.984375 179.570312 C 265.777344 179.703125 265.605469 179.875 265.46875 180.078125 C 265.332031 180.285156 265.242188 180.511719 265.203125 180.753906 C 264.351562 184.074219 263.117188 187.242188 261.496094 190.261719 C 261.320312 190.589844 261.25 190.9375 261.296875 191.308594 C 261.339844 191.679688 261.484375 192.003906 261.734375 192.28125 C 261.980469 192.558594 262.289062 192.738281 262.652344 192.824219 C 263.015625 192.90625 263.367188 192.878906 263.714844 192.742188 Z M 218.195312 210.746094 C 218.527344 210.613281 218.796875 210.398438 218.996094 210.097656 C 219.199219 209.800781 219.300781 209.472656 219.300781 209.113281 C 219.300781 208.753906 219.203125 208.421875 219 208.125 C 218.800781 207.824219 218.535156 207.609375 218.203125 207.472656 C 217.15625 207.042969 216.136719 206.550781 215.152344 205.996094 C 213.238281 204.910156 211.515625 203.574219 209.984375 201.996094 C 209.820312 201.820312 209.628906 201.679688 209.414062 201.582031 C 209.195312 201.480469 208.964844 201.429688 208.726562 201.421875 C 208.488281 201.417969 208.257812 201.457031 208.035156 201.542969 C 207.8125 201.632812 207.613281 201.761719 207.441406 201.925781 C 207.273438 202.09375 207.140625 202.289062 207.046875 202.511719 C 206.957031 202.730469 206.910156 202.960938 206.910156 203.199219 C 206.914062 203.441406 206.960938 203.671875 207.054688 203.890625 C 207.152344 204.109375 207.285156 204.300781 207.457031 204.46875 C 209.226562 206.285156 211.210938 207.816406 213.414062 209.0625 C 214.527344 209.6875 215.675781 210.242188 216.859375 210.722656 C 217.300781 210.90625 217.746094 210.910156 218.191406 210.734375 Z M 265.328125 174.734375 C 265.625 174.617188 265.871094 174.429688 266.066406 174.175781 C 266.261719 173.921875 266.378906 173.640625 266.417969 173.320312 C 266.460938 173.003906 266.417969 172.699219 266.292969 172.40625 C 266.167969 172.113281 265.976562 171.867188 265.722656 171.679688 C 264.527344 170.789062 263.304688 169.894531 262.082031 169.027344 C 260.367188 167.8125 258.597656 166.621094 256.832031 165.527344 C 256.632812 165.410156 256.421875 165.335938 256.191406 165.300781 C 255.964844 165.269531 255.738281 165.28125 255.515625 165.335938 C 255.289062 165.390625 255.085938 165.484375 254.898438 165.621094 C 254.710938 165.757812 254.558594 165.921875 254.4375 166.117188 C 254.316406 166.316406 254.234375 166.527344 254.195312 166.753906 C 254.15625 166.980469 254.164062 167.207031 254.210938 167.433594 C 254.261719 167.65625 254.351562 167.863281 254.484375 168.054688 C 254.613281 168.246094 254.777344 168.402344 254.96875 168.527344 C 256.667969 169.585938 258.371094 170.71875 260.03125 171.902344 C 261.230469 172.761719 262.433594 173.640625 263.609375 174.515625 C 263.859375 174.699219 264.136719 174.808594 264.441406 174.851562 C 264.746094 174.890625 265.042969 174.851562 265.328125 174.734375 Z M 269.082031 172.308594 C 269.40625 172.179688 269.667969 171.972656 269.871094 171.6875 C 270.074219 171.398438 270.179688 171.082031 270.195312 170.734375 C 270.328125 167.058594 270.117188 163.402344 269.550781 159.769531 C 269.523438 159.53125 269.449219 159.308594 269.328125 159.101562 C 269.207031 158.894531 269.054688 158.71875 268.863281 158.578125 C 268.671875 158.433594 268.460938 158.332031 268.230469 158.273438 C 268 158.214844 267.765625 158.203125 267.527344 158.238281 C 267.292969 158.277344 267.074219 158.355469 266.867188 158.484375 C 266.664062 158.609375 266.496094 158.769531 266.355469 158.960938 C 266.21875 159.15625 266.121094 159.371094 266.070312 159.605469 C 266.019531 159.835938 266.015625 160.070312 266.058594 160.308594 C 266.585938 163.71875 266.789062 167.148438 266.660156 170.597656 C 266.65625 170.746094 266.667969 170.890625 266.699219 171.035156 C 266.730469 171.179688 266.777344 171.316406 266.84375 171.449219 C 266.910156 171.582031 266.992188 171.703125 267.085938 171.816406 C 267.183594 171.929688 267.289062 172.027344 267.410156 172.109375 C 267.53125 172.195312 267.660156 172.265625 267.800781 172.316406 C 267.9375 172.371094 268.078125 172.40625 268.226562 172.421875 C 268.375 172.4375 268.519531 172.4375 268.664062 172.417969 C 268.8125 172.398438 268.953125 172.359375 269.089844 172.304688 Z M 203.535156 196.035156 L 203.574219 196.019531 C 203.789062 195.925781 203.980469 195.796875 204.140625 195.625 C 204.304688 195.457031 204.429688 195.265625 204.515625 195.046875 C 204.601562 194.832031 204.644531 194.605469 204.640625 194.371094 C 204.636719 194.136719 204.589844 193.910156 204.496094 193.695312 C 204.410156 193.480469 204.320312 193.261719 204.234375 193.039062 C 203.042969 190.121094 202.328125 187.09375 202.082031 183.953125 C 202.050781 183.730469 201.980469 183.519531 201.867188 183.324219 C 201.757812 183.128906 201.613281 182.960938 201.4375 182.820312 C 201.261719 182.679688 201.066406 182.574219 200.851562 182.507812 C 200.636719 182.441406 200.417969 182.417969 200.191406 182.433594 C 199.96875 182.453125 199.753906 182.511719 199.550781 182.609375 C 199.351562 182.710938 199.171875 182.84375 199.023438 183.007812 C 198.871094 183.175781 198.753906 183.363281 198.675781 183.574219 C 198.597656 183.785156 198.558594 184.003906 198.5625 184.230469 C 198.824219 187.738281 199.617188 191.121094 200.933594 194.382812 C 201.03125 194.625 201.128906 194.867188 201.226562 195.109375 C 201.320312 195.320312 201.449219 195.507812 201.613281 195.671875 C 201.78125 195.832031 201.96875 195.957031 202.183594 196.042969 C 202.398438 196.128906 202.621094 196.171875 202.855469 196.171875 C 203.085938 196.171875 203.308594 196.128906 203.523438 196.039062 Z M 247.183594 163.609375 C 247.617188 163.433594 247.933594 163.132812 248.125 162.703125 C 248.222656 162.492188 248.277344 162.269531 248.285156 162.035156 C 248.292969 161.800781 248.257812 161.570312 248.175781 161.351562 C 248.09375 161.132812 247.972656 160.9375 247.816406 160.765625 C 247.65625 160.59375 247.46875 160.457031 247.253906 160.359375 C 243.933594 158.824219 240.503906 157.574219 236.96875 156.613281 C 236.742188 156.554688 236.515625 156.539062 236.28125 156.570312 C 236.050781 156.601562 235.832031 156.675781 235.628906 156.792969 C 235.425781 156.910156 235.253906 157.0625 235.109375 157.25 C 234.96875 157.4375 234.867188 157.644531 234.808594 157.871094 C 234.746094 158.097656 234.734375 158.324219 234.765625 158.558594 C 234.792969 158.789062 234.871094 159.007812 234.988281 159.210938 C 235.105469 159.414062 235.257812 159.585938 235.441406 159.726562 C 235.628906 159.871094 235.835938 159.972656 236.0625 160.03125 C 239.402344 160.9375 242.644531 162.121094 245.785156 163.578125 C 246.246094 163.789062 246.714844 163.796875 247.183594 163.609375 Z M 265.898438 151.34375 C 266.105469 151.261719 266.292969 151.140625 266.457031 150.984375 C 266.621094 150.828125 266.75 150.644531 266.84375 150.4375 C 266.9375 150.234375 266.992188 150.015625 267.003906 149.789062 C 267.011719 149.5625 266.980469 149.34375 266.90625 149.128906 C 266.558594 148.125 266.1875 147.132812 265.800781 146.167969 C 265.207031 144.703125 264.546875 143.242188 263.859375 141.855469 C 263.402344 140.945312 262.921875 140.027344 262.421875 139.132812 C 262.3125 138.921875 262.167969 138.738281 261.984375 138.582031 C 261.800781 138.429688 261.59375 138.316406 261.363281 138.25 C 261.136719 138.179688 260.902344 138.15625 260.664062 138.183594 C 260.425781 138.207031 260.203125 138.277344 259.992188 138.394531 C 259.78125 138.511719 259.605469 138.664062 259.457031 138.851562 C 259.308594 139.039062 259.203125 139.25 259.144531 139.480469 C 259.082031 139.710938 259.066406 139.945312 259.097656 140.183594 C 259.132812 140.421875 259.210938 140.640625 259.332031 140.847656 C 259.800781 141.699219 260.257812 142.566406 260.695312 143.433594 C 261.347656 144.75 261.964844 146.113281 262.519531 147.492188 C 262.890625 148.40625 263.238281 149.347656 263.5625 150.28125 C 263.640625 150.503906 263.753906 150.699219 263.910156 150.875 C 264.066406 151.050781 264.25 151.191406 264.457031 151.292969 C 264.667969 151.394531 264.890625 151.453125 265.125 151.46875 C 265.359375 151.484375 265.585938 151.453125 265.808594 151.378906 Z M 202.085938 175.179688 C 202.609375 174.96875 202.953125 174.59375 203.117188 174.054688 C 204.066406 170.855469 205.683594 168.039062 207.972656 165.609375 C 208.136719 165.441406 208.257812 165.246094 208.34375 165.027344 C 208.429688 164.808594 208.46875 164.582031 208.460938 164.347656 C 208.457031 164.113281 208.40625 163.890625 208.3125 163.675781 C 208.21875 163.460938 208.085938 163.273438 207.914062 163.109375 C 207.746094 162.949219 207.550781 162.824219 207.332031 162.742188 C 207.113281 162.65625 206.886719 162.617188 206.652344 162.621094 C 206.417969 162.625 206.195312 162.675781 205.980469 162.769531 C 205.765625 162.863281 205.578125 162.996094 205.414062 163.167969 C 202.738281 166 200.847656 169.289062 199.738281 173.027344 C 199.640625 173.351562 199.636719 173.679688 199.726562 174.007812 C 199.816406 174.335938 199.984375 174.613281 200.234375 174.84375 C 200.484375 175.074219 200.777344 175.21875 201.113281 175.28125 C 201.449219 175.339844 201.773438 175.308594 202.089844 175.179688 Z M 226.648438 158.449219 C 227.039062 158.289062 227.335938 158.027344 227.539062 157.652344 C 227.742188 157.28125 227.804688 156.890625 227.726562 156.472656 C 227.644531 156.058594 227.441406 155.714844 227.117188 155.445312 C 226.792969 155.175781 226.417969 155.039062 225.992188 155.039062 C 222.179688 154.976562 218.488281 155.613281 214.914062 156.941406 C 214.695312 157.023438 214.5 157.148438 214.328125 157.308594 C 214.160156 157.46875 214.023438 157.65625 213.929688 157.871094 C 213.832031 158.085938 213.78125 158.308594 213.773438 158.542969 C 213.769531 158.777344 213.808594 159.003906 213.890625 159.222656 C 213.972656 159.441406 214.097656 159.636719 214.257812 159.808594 C 214.417969 159.976562 214.605469 160.113281 214.820312 160.207031 C 215.035156 160.304688 215.257812 160.355469 215.492188 160.363281 C 215.726562 160.367188 215.953125 160.328125 216.171875 160.246094 C 219.335938 159.074219 222.601562 158.519531 225.972656 158.574219 C 226.207031 158.582031 226.433594 158.542969 226.652344 158.457031 Z M 255.675781 132.734375 C 255.828125 132.675781 255.964844 132.597656 256.09375 132.5 C 256.277344 132.355469 256.429688 132.183594 256.546875 131.980469 C 256.664062 131.777344 256.738281 131.5625 256.769531 131.328125 C 256.800781 131.097656 256.785156 130.867188 256.722656 130.640625 C 256.664062 130.414062 256.5625 130.207031 256.417969 130.023438 C 254.203125 127.144531 251.8125 124.417969 249.246094 121.839844 C 249.082031 121.675781 248.890625 121.546875 248.675781 121.457031 C 248.457031 121.363281 248.230469 121.320312 247.996094 121.316406 C 247.761719 121.316406 247.535156 121.363281 247.320312 121.449219 C 247.101562 121.539062 246.910156 121.667969 246.746094 121.832031 C 246.578125 121.996094 246.449219 122.1875 246.359375 122.40625 C 246.269531 122.621094 246.222656 122.847656 246.222656 123.082031 C 246.222656 123.316406 246.265625 123.542969 246.355469 123.761719 C 246.445312 123.976562 246.570312 124.167969 246.738281 124.335938 C 249.195312 126.800781 251.488281 129.414062 253.617188 132.171875 C 253.855469 132.488281 254.167969 132.695312 254.550781 132.800781 C 254.933594 132.90625 255.308594 132.882812 255.675781 132.734375 Z M 240.722656 117.617188 C 240.867188 117.558594 241 117.484375 241.121094 117.390625 C 241.246094 117.296875 241.355469 117.191406 241.449219 117.070312 C 241.546875 116.949219 241.625 116.816406 241.683594 116.675781 C 241.746094 116.535156 241.789062 116.386719 241.808594 116.234375 C 241.832031 116.082031 241.835938 115.929688 241.820312 115.777344 C 241.800781 115.625 241.765625 115.476562 241.707031 115.332031 C 241.652344 115.191406 241.578125 115.054688 241.488281 114.933594 C 241.398438 114.808594 241.292969 114.695312 241.171875 114.601562 C 238.460938 112.402344 235.527344 110.246094 232.460938 108.203125 C 232.269531 108.078125 232.054688 107.992188 231.828125 107.949219 C 231.601562 107.90625 231.371094 107.910156 231.144531 107.957031 C 230.917969 108.003906 230.707031 108.089844 230.515625 108.21875 C 230.324219 108.351562 230.160156 108.511719 230.03125 108.703125 C 229.902344 108.898438 229.816406 109.105469 229.769531 109.335938 C 229.722656 109.5625 229.722656 109.789062 229.765625 110.019531 C 229.808594 110.246094 229.894531 110.457031 230.019531 110.652344 C 230.144531 110.847656 230.304688 111.007812 230.496094 111.140625 C 233.476562 113.136719 236.324219 115.230469 238.953125 117.363281 C 239.203125 117.5625 239.488281 117.683594 239.804688 117.726562 C 240.121094 117.773438 240.429688 117.734375 240.722656 117.617188 Z M 223.050781 105.726562 C 223.367188 105.597656 223.621094 105.394531 223.820312 105.121094 C 224.019531 104.84375 224.128906 104.539062 224.152344 104.199219 C 224.171875 103.859375 224.101562 103.542969 223.941406 103.242188 C 223.78125 102.945312 223.550781 102.710938 223.253906 102.546875 C 220.140625 100.796875 216.921875 99.140625 213.640625 97.632812 C 213.429688 97.53125 213.207031 97.476562 212.972656 97.46875 C 212.738281 97.457031 212.507812 97.492188 212.289062 97.574219 C 212.070312 97.65625 211.871094 97.773438 211.699219 97.933594 C 211.527344 98.089844 211.390625 98.277344 211.292969 98.488281 C 211.191406 98.703125 211.136719 98.925781 211.128906 99.160156 C 211.117188 99.394531 211.152344 99.621094 211.234375 99.84375 C 211.316406 100.0625 211.433594 100.257812 211.59375 100.433594 C 211.75 100.605469 211.9375 100.742188 212.148438 100.839844 C 215.332031 102.316406 218.480469 103.929688 221.519531 105.632812 C 222.019531 105.90625 222.535156 105.933594 223.0625 105.707031 Z M 203.734375 96.75 C 204.074219 96.613281 204.34375 96.390625 204.542969 96.089844 C 204.746094 95.785156 204.84375 95.453125 204.839844 95.089844 C 204.835938 94.722656 204.726562 94.394531 204.519531 94.09375 C 204.308594 93.796875 204.035156 93.582031 203.695312 93.457031 C 200.355469 92.203125 196.917969 91.050781 193.464844 90.039062 C 193.238281 89.960938 193.003906 89.933594 192.765625 89.953125 C 192.523438 89.972656 192.300781 90.035156 192.085938 90.148438 C 191.875 90.257812 191.691406 90.40625 191.539062 90.589844 C 191.386719 90.777344 191.277344 90.984375 191.207031 91.214844 C 191.140625 91.445312 191.121094 91.679688 191.148438 91.917969 C 191.175781 92.15625 191.25 92.378906 191.367188 92.585938 C 191.484375 92.796875 191.640625 92.972656 191.832031 93.117188 C 192.023438 93.265625 192.234375 93.367188 192.464844 93.425781 C 195.832031 94.417969 199.195312 95.542969 202.449219 96.765625 C 202.886719 96.929688 203.320312 96.917969 203.75 96.738281 Z M 183.328125 90.714844 C 183.6875 90.570312 183.96875 90.332031 184.171875 90.003906 C 184.375 89.671875 184.460938 89.3125 184.425781 88.925781 C 184.394531 88.539062 184.25 88.203125 183.996094 87.910156 C 183.738281 87.617188 183.421875 87.433594 183.042969 87.347656 C 179.5625 86.585938 175.988281 85.9375 172.4375 85.414062 C 172.195312 85.359375 171.953125 85.355469 171.710938 85.402344 C 171.46875 85.445312 171.242188 85.539062 171.039062 85.679688 C 170.835938 85.820312 170.667969 85.996094 170.539062 86.207031 C 170.410156 86.414062 170.324219 86.644531 170.289062 86.886719 C 170.257812 87.132812 170.273438 87.375 170.339844 87.613281 C 170.40625 87.851562 170.515625 88.066406 170.671875 88.257812 C 170.828125 88.449219 171.019531 88.601562 171.238281 88.710938 C 171.457031 88.824219 171.691406 88.886719 171.9375 88.902344 C 175.410156 89.40625 178.886719 90.058594 182.308594 90.8125 C 182.660156 90.882812 182.996094 90.847656 183.328125 90.714844 Z M 162.242188 87.613281 C 162.621094 87.457031 162.914062 87.203125 163.121094 86.847656 C 163.324219 86.488281 163.394531 86.109375 163.332031 85.703125 C 163.269531 85.296875 163.089844 84.953125 162.785156 84.671875 C 162.484375 84.394531 162.128906 84.238281 161.71875 84.207031 C 158.171875 83.921875 154.542969 83.761719 150.957031 83.710938 C 150.71875 83.707031 150.492188 83.75 150.277344 83.835938 C 150.058594 83.925781 149.863281 84.050781 149.695312 84.214844 C 149.527344 84.375 149.398438 84.566406 149.304688 84.78125 C 149.210938 85 149.164062 85.222656 149.160156 85.457031 C 149.15625 85.691406 149.199219 85.917969 149.285156 86.136719 C 149.375 86.355469 149.5 86.550781 149.664062 86.71875 C 149.828125 86.886719 150.015625 87.015625 150.234375 87.109375 C 150.449219 87.199219 150.675781 87.25 150.910156 87.25 C 154.421875 87.296875 157.960938 87.453125 161.441406 87.730469 C 161.71875 87.753906 161.984375 87.714844 162.242188 87.613281 Z M 35.71875 132.941406 C 35.949219 132.851562 36.148438 132.71875 36.320312 132.542969 C 38.757812 130.078125 41.359375 127.65625 44.011719 125.355469 C 44.1875 125.199219 44.324219 125.019531 44.425781 124.808594 C 44.53125 124.601562 44.589844 124.378906 44.605469 124.148438 C 44.621094 123.914062 44.589844 123.6875 44.515625 123.46875 C 44.441406 123.246094 44.328125 123.050781 44.175781 122.875 C 44.023438 122.695312 43.84375 122.558594 43.636719 122.453125 C 43.429688 122.347656 43.207031 122.285156 42.976562 122.269531 C 42.742188 122.25 42.515625 122.277344 42.296875 122.347656 C 42.074219 122.421875 41.875 122.53125 41.695312 122.683594 C 38.976562 125.042969 36.324219 127.523438 33.816406 130.0625 C 33.519531 130.359375 33.347656 130.71875 33.308594 131.136719 C 33.265625 131.558594 33.363281 131.941406 33.597656 132.292969 C 33.832031 132.644531 34.152344 132.878906 34.554688 133.003906 C 34.957031 133.125 35.355469 133.105469 35.742188 132.945312 Z M 140.9375 87.339844 C 141.132812 87.261719 141.308594 87.152344 141.460938 87.011719 C 141.617188 86.871094 141.746094 86.710938 141.84375 86.523438 C 141.941406 86.339844 142.003906 86.144531 142.03125 85.933594 C 142.058594 85.726562 142.050781 85.523438 142.003906 85.316406 C 141.960938 85.113281 141.878906 84.921875 141.765625 84.746094 C 141.65625 84.570312 141.515625 84.417969 141.347656 84.292969 C 141.179688 84.164062 140.996094 84.070312 140.796875 84.007812 C 140.597656 83.949219 140.390625 83.921875 140.183594 83.933594 C 136.621094 84.121094 133.007812 84.421875 129.449219 84.839844 C 129.21875 84.863281 129 84.933594 128.792969 85.050781 C 128.589844 85.164062 128.414062 85.3125 128.265625 85.496094 C 128.121094 85.679688 128.015625 85.882812 127.953125 86.109375 C 127.886719 86.335938 127.867188 86.5625 127.894531 86.796875 C 127.921875 87.03125 127.992188 87.25 128.105469 87.453125 C 128.21875 87.660156 128.371094 87.835938 128.554688 87.980469 C 128.738281 88.125 128.941406 88.230469 129.167969 88.296875 C 129.394531 88.359375 129.621094 88.378906 129.855469 88.351562 C 133.339844 87.945312 136.878906 87.648438 140.367188 87.46875 C 140.5625 87.453125 140.753906 87.410156 140.933594 87.332031 Z M 51.796875 118.972656 C 51.941406 118.914062 52.074219 118.835938 52.195312 118.746094 C 54.980469 116.664062 57.894531 114.644531 60.851562 112.738281 C 61.058594 112.617188 61.230469 112.457031 61.371094 112.265625 C 61.511719 112.070312 61.613281 111.859375 61.667969 111.625 C 61.722656 111.390625 61.726562 111.15625 61.6875 110.921875 C 61.648438 110.683594 61.5625 110.464844 61.433594 110.265625 C 61.304688 110.0625 61.140625 109.894531 60.941406 109.761719 C 60.742188 109.625 60.527344 109.535156 60.292969 109.488281 C 60.058594 109.441406 59.824219 109.441406 59.589844 109.488281 C 59.355469 109.539062 59.136719 109.628906 58.941406 109.765625 C 55.914062 111.714844 52.933594 113.777344 50.078125 115.914062 C 49.90625 116.042969 49.761719 116.195312 49.644531 116.375 C 49.527344 116.558594 49.445312 116.753906 49.402344 116.964844 C 49.355469 117.175781 49.351562 117.386719 49.382812 117.597656 C 49.414062 117.8125 49.484375 118.011719 49.589844 118.199219 C 49.695312 118.386719 49.832031 118.550781 49.996094 118.6875 C 50.160156 118.828125 50.34375 118.933594 50.546875 119.003906 C 50.75 119.074219 50.960938 119.105469 51.175781 119.101562 C 51.390625 119.09375 51.597656 119.050781 51.796875 118.972656 Z M 119.765625 89.785156 C 119.96875 89.699219 120.148438 89.585938 120.304688 89.433594 C 120.464844 89.285156 120.589844 89.113281 120.683594 88.914062 C 120.78125 88.71875 120.835938 88.511719 120.851562 88.296875 C 120.871094 88.078125 120.851562 87.867188 120.789062 87.65625 C 120.726562 87.449219 120.632812 87.257812 120.5 87.082031 C 120.367188 86.910156 120.210938 86.765625 120.027344 86.648438 C 119.839844 86.535156 119.640625 86.457031 119.425781 86.414062 C 119.214844 86.375 119 86.371094 118.785156 86.410156 C 115.265625 87.046875 111.71875 87.804688 108.253906 88.660156 C 108.023438 88.714844 107.816406 88.8125 107.625 88.949219 C 107.4375 89.089844 107.28125 89.257812 107.15625 89.460938 C 107.035156 89.660156 106.957031 89.878906 106.921875 90.109375 C 106.886719 90.34375 106.898438 90.574219 106.953125 90.800781 C 107.011719 91.03125 107.109375 91.238281 107.246094 91.425781 C 107.386719 91.617188 107.558594 91.773438 107.757812 91.894531 C 107.960938 92.015625 108.179688 92.089844 108.410156 92.125 C 108.644531 92.160156 108.875 92.148438 109.101562 92.089844 C 112.496094 91.253906 115.96875 90.511719 119.417969 89.886719 C 119.535156 89.867188 119.652344 89.832031 119.765625 89.785156 Z M 69.699219 107.449219 C 69.765625 107.425781 69.832031 107.398438 69.894531 107.367188 C 72.949219 105.6875 76.113281 104.09375 79.296875 102.601562 C 79.507812 102.503906 79.695312 102.367188 79.851562 102.195312 C 80.011719 102.019531 80.132812 101.824219 80.210938 101.601562 C 80.292969 101.382812 80.328125 101.15625 80.316406 100.921875 C 80.308594 100.683594 80.253906 100.460938 80.152344 100.25 C 80.054688 100.035156 79.917969 99.851562 79.746094 99.691406 C 79.570312 99.53125 79.375 99.414062 79.152344 99.332031 C 78.933594 99.253906 78.707031 99.21875 78.472656 99.226562 C 78.238281 99.238281 78.011719 99.292969 77.800781 99.390625 C 74.550781 100.894531 71.324219 102.539062 68.199219 104.25 C 67.988281 104.351562 67.800781 104.488281 67.644531 104.664062 C 67.488281 104.835938 67.371094 105.035156 67.289062 105.257812 C 67.210938 105.476562 67.179688 105.707031 67.191406 105.941406 C 67.203125 106.175781 67.257812 106.398438 67.359375 106.609375 C 67.460938 106.824219 67.597656 107.007812 67.769531 107.164062 C 67.945312 107.324219 68.144531 107.441406 68.363281 107.519531 C 68.585938 107.597656 68.8125 107.632812 69.046875 107.621094 C 69.28125 107.609375 69.503906 107.550781 69.71875 107.453125 Z M 99.066406 94.90625 C 99.285156 94.828125 99.484375 94.710938 99.65625 94.550781 C 99.832031 94.394531 99.96875 94.207031 100.066406 93.996094 C 100.167969 93.785156 100.222656 93.5625 100.234375 93.328125 C 100.246094 93.09375 100.210938 92.863281 100.132812 92.644531 C 100.050781 92.421875 99.933594 92.226562 99.777344 92.050781 C 99.617188 91.878906 99.433594 91.742188 99.222656 91.640625 C 99.007812 91.542969 98.785156 91.484375 98.550781 91.476562 C 98.316406 91.464844 98.089844 91.496094 97.867188 91.578125 C 94.484375 92.652344 91.050781 93.859375 87.722656 95.148438 C 87.503906 95.234375 87.308594 95.359375 87.140625 95.519531 C 86.972656 95.683594 86.839844 95.871094 86.746094 96.085938 C 86.648438 96.300781 86.601562 96.527344 86.59375 96.761719 C 86.589844 96.996094 86.628906 97.222656 86.714844 97.4375 C 86.800781 97.65625 86.921875 97.851562 87.085938 98.019531 C 87.246094 98.191406 87.4375 98.324219 87.652344 98.417969 C 87.867188 98.511719 88.089844 98.5625 88.324219 98.566406 C 88.558594 98.570312 88.785156 98.53125 89.003906 98.445312 C 92.261719 97.179688 95.605469 96.003906 98.949219 94.945312 Z M 99.066406 94.90625 " fill-opacity="1" fill-rule="nonzero"/></g></g></g><g clip-path="url(#a4649b384f)"><g clip-path="url(#3c56e86f19)"><g clip-path="url(#e4e1344880)"><path fill="#d8d8d8" d="M 330.613281 251.121094 C 330.667969 251.101562 330.722656 251.078125 330.777344 251.054688 C 330.984375 250.945312 331.164062 250.800781 331.316406 250.617188 C 331.464844 250.4375 331.574219 250.238281 331.644531 250.011719 C 331.710938 249.789062 331.738281 249.558594 331.714844 249.324219 C 331.691406 249.09375 331.628906 248.871094 331.519531 248.664062 C 330.691406 247.089844 329.84375 245.527344 328.972656 243.972656 C 328.867188 243.757812 328.722656 243.570312 328.539062 243.414062 C 328.355469 243.257812 328.148438 243.144531 327.917969 243.070312 C 327.6875 243 327.453125 242.976562 327.214844 243 C 326.972656 243.023438 326.75 243.09375 326.539062 243.210938 C 326.328125 243.328125 326.148438 243.480469 326 243.667969 C 325.851562 243.859375 325.746094 244.070312 325.683594 244.304688 C 325.621094 244.535156 325.605469 244.769531 325.640625 245.007812 C 325.675781 245.25 325.753906 245.46875 325.878906 245.675781 C 326.730469 247.207031 327.574219 248.761719 328.386719 250.304688 C 328.488281 250.496094 328.621094 250.667969 328.785156 250.8125 C 328.949219 250.957031 329.136719 251.066406 329.339844 251.140625 C 329.546875 251.214844 329.757812 251.253906 329.976562 251.25 C 330.195312 251.246094 330.410156 251.203125 330.613281 251.121094 Z M 330.613281 251.121094 " fill-opacity="1" fill-rule="nonzero"/></g></g></g><g clip-path="url(#6773c034f6)"><g clip-path="url(#1f86067513)"><g clip-path="url(#aab52fd541)"><path fill="#d8d8d8" d="M 338.988281 268.816406 C 338.054688 258.132812 338.480469 244.167969 341.265625 234.304688 L 328.664062 246.996094 L 310.847656 248.699219 C 320.253906 252.789062 331.328125 261.332031 338.988281 268.816406 Z M 338.988281 268.816406 " fill-opacity="1" fill-rule="nonzero"/></g></g></g><g fill="#0a0a0a" fill-opacity="1"><g transform="translate(14.835698, 376.249955)"><g><path d="M 5.515625 0.171875 C 4.816406 0.171875 4.203125 0.03125 3.671875 -0.25 C 3.148438 -0.53125 2.75 -0.914062 2.46875 -1.40625 C 2.1875 -1.90625 2.046875 -2.46875 2.046875 -3.09375 C 2.046875 -3.71875 2.1875 -4.273438 2.46875 -4.765625 C 2.75 -5.265625 3.148438 -5.65625 3.671875 -5.9375 C 4.203125 -6.226562 4.816406 -6.375 5.515625 -6.375 C 6.210938 -6.375 6.820312 -6.234375 7.34375 -5.953125 C 7.875 -5.671875 8.28125 -5.28125 8.5625 -4.78125 C 8.84375 -4.289062 8.984375 -3.734375 8.984375 -3.109375 C 8.984375 -2.160156 8.664062 -1.375 8.03125 -0.75 C 7.40625 -0.132812 6.566406 0.171875 5.515625 0.171875 Z M 5.515625 0.171875 "/></g></g></g></svg>